# xmcd
#
# Track frame offsets:
#	150
#	9271
#	20166
#	30656
#
# Disc length: 598 seconds
#
# Revision: 1
# Processed by: cddbd v1.5.1PL0 Copyright (c) Steve Scherf et al.
# Submitted via: CDex 1.50Beta5
#
DISCID=24025404
DTITLE=From Software - O To Gi Original Sound Track
DYEAR=2002
DGENRE=Soundtrack
TTITLE0=御伽
TTITLE1=風無
TTITLE2=廻戒
TTITLE3=童禍
EXTD=
EXTT0=
EXTT1=
EXTT2=
EXTT3=
PLAYORDER=
